<svg id="Layer_1" data-name="Layer 1" xmlns="http://www.w3.org/2000/svg" viewBox="0 0 811 670"><defs><style>.cls-1{font-size:53.83px;font-family:Montserrat-Regular, Montserrat;letter-spacing:-0.03em;}</style></defs><path d="M111.72,538.57h-31L36.09,409.63H64.21l32,97.43,32-97.43h28.11l32,97.43,32-97.43h28.12l-44.6,128.94h-31l-30.54-88.22Z"/><path d="M385.12,486H284.05q1,14.06,12.84,22.66a45.08,45.08,0,0,0,27.15,8.6q24.24,0,36.84-15.27l15.51,17q-20.83,21.57-54.29,21.57-27.15,0-46.17-18.06T256.9,474q0-30.42,19.39-48.36A65.11,65.11,0,0,1,322,407.69q26.29,0,44.72,15.87t18.42,43.75ZM284.05,464.65H358q0-16.25-10.18-25T322.71,431a43,43,0,0,0-26.79,9.09Q284.05,449.14,284.05,464.65Z"/><path d="M403.54,433.38V410.11H504.37v24.48L431.9,515.06h76.35v23.51H398.69V512.15l70.54-78.77Z"/><path d="M533.21,383.93A17,17,0,1,1,545.33,389,16.55,16.55,0,0,1,533.21,383.93Zm25.45,154.64H531.51V409.63h27.15Z"/><path d="M617.8,538.57H590.65V358.73H617.8Z"/><path d="M769.77,486H668.7q1,14.06,12.84,22.66a45.08,45.08,0,0,0,27.15,8.6q24.22,0,36.84-15.27l15.51,17q-20.85,21.57-54.29,21.57-27.15,0-46.17-18.06t-19-48.47q0-30.42,19.39-48.36a65.08,65.08,0,0,1,45.69-17.93q26.29,0,44.72,15.87t18.42,43.75ZM668.7,464.65h73.92q0-16.25-10.18-25T707.35,431a43,43,0,0,0-26.78,9.09Q668.69,449.14,668.7,464.65Z"/><path d="M543.15,89.87h0a14.4,14.4,0,0,1,10.24,4.23l50,50A14.42,14.42,0,0,0,626.21,141l41.06-73.25a14.43,14.43,0,0,0-12.59-21.49H432a14.43,14.43,0,0,0-14.43,14.44l0,91.8a14.43,14.43,0,0,0,4.23,10.2l70.91,70.91a14.43,14.43,0,0,1-10.17,24.64h0A14.4,14.4,0,0,1,472.33,254l-59.92-59.91a14.42,14.42,0,0,0-20.41,0L332.09,254a14.42,14.42,0,0,1-10.24,4.23h0a14.43,14.43,0,0,1-10.17-24.64l72.83-72.84a14.39,14.39,0,0,0,4.23-10.2l0-89.87a14.43,14.43,0,0,0-14.43-14.44H151.18a14.44,14.44,0,0,0-12.6,21.48l41.18,73.62a14.43,14.43,0,0,0,22.8,3.16L253,94.1a14.42,14.42,0,0,1,10.24-4.23h0a14.43,14.43,0,0,1,10.17,24.64l-61.93,61.93A14.44,14.44,0,0,0,209,193.69l85.71,153.25a14.44,14.44,0,0,0,22.81,3.16l74.34-74.34a14.43,14.43,0,0,1,20.51.1l74.46,75.91a14.43,14.43,0,0,0,22.89-3l87.13-155.43A14.43,14.43,0,0,0,594.5,176L533,114.51A14.43,14.43,0,0,1,543.15,89.87Z"/><text class="cls-1" transform="translate(176.88 615.44) scale(1.02 1)">We speak Design</text></svg>