<svg id="Layer_1" data-name="Layer 1" xmlns="http://www.w3.org/2000/svg" xmlns:xlink="http://www.w3.org/1999/xlink" viewBox="0 0 811 670"><defs><style>.cls-1{fill:url(#linear-gradient);}</style><linearGradient id="linear-gradient" x1="-711.34" y1="631" x2="-77.66" y2="631" gradientTransform="translate(800 -296)" gradientUnits="userSpaceOnUse"><stop offset="0.27" stop-color="#f15a29"/><stop offset="0.68" stop-color="#ef4136"/><stop offset="0.76" stop-color="#e83c35"/><stop offset="0.88" stop-color="#d62f31"/><stop offset="1" stop-color="#be1e2d"/></linearGradient></defs><path class="cls-1" d="M572.39,202.54h0a17.15,17.15,0,0,1,12.19,5l59.54,59.54a17.18,17.18,0,0,0,27.13-3.75l48.87-87.19a17.18,17.18,0,0,0-15-25.58h-265a17.19,17.19,0,0,0-17.18,17.19L423,277a17.18,17.18,0,0,0,5,12.14l84.4,84.4c10.81,10.81,3.18,29.29-12.1,29.32h0a17.17,17.17,0,0,1-12.19-5l-71.31-71.31a17.18,17.18,0,0,0-24.3,0l-71.31,71.31a17.19,17.19,0,0,1-12.19,5h0c-15.28,0-22.91-18.51-12.1-29.32l86.69-86.69a17.18,17.18,0,0,0,5-12.14l0-107a17.19,17.19,0,0,0-17.18-17.19H105.87a17.19,17.19,0,0,0-15,25.57l49,87.62A17.18,17.18,0,0,0,167,267.54l60-60a17.15,17.15,0,0,1,12.19-5h0c15.28,0,22.91,18.51,12.11,29.32l-73.71,73.71a17.17,17.17,0,0,0-2.85,20.53l102,182.41a17.18,17.18,0,0,0,27.14,3.76l88.48-88.49a17.18,17.18,0,0,1,24.42.12l88.61,90.35a17.17,17.17,0,0,0,27.25-3.63l103.7-185a17.19,17.19,0,0,0-2.84-20.55l-73.23-73.22C549.48,221.05,557.11,202.57,572.39,202.54Z"/></svg>