<svg id="Layer_1" data-name="Layer 1" xmlns="http://www.w3.org/2000/svg" viewBox="0 0 811 670"><defs><style>.cls-1,.cls-2{fill:#fff;}.cls-2{font-size:53.83px;font-family:Montserrat-Regular, Montserrat;letter-spacing:-0.03em;}</style></defs><path class="cls-1" d="M114.08,542.57h-31L38.46,413.63H66.57l32,97.43,32-97.43h28.12l32,97.43,32-97.43h28.11l-44.6,128.94h-31l-30.54-88.22Z"/><path class="cls-1" d="M387.48,490H286.41q1,14.06,12.85,22.66a45,45,0,0,0,27.14,8.6q24.24,0,36.84-15.27l15.52,17q-20.85,21.57-54.3,21.57-27.13,0-46.17-18.06t-19-48.47q0-30.42,19.39-48.36a65.11,65.11,0,0,1,45.69-17.93q26.3,0,44.72,15.87t18.42,43.75ZM286.41,468.65h73.93q0-16.25-10.18-25T325.07,435a42.91,42.91,0,0,0-26.78,9.09Q286.41,453.14,286.41,468.65Z"/><path class="cls-1" d="M405.9,437.38V414.11H506.73v24.48l-72.47,80.47h76.35v23.51H401.06V516.15l70.53-78.77Z"/><path class="cls-1" d="M535.57,387.93A17,17,0,1,1,547.69,393,16.55,16.55,0,0,1,535.57,387.93ZM561,542.57H533.88V413.63H561Z"/><path class="cls-1" d="M620.16,542.57H593V362.73h27.14Z"/><path class="cls-1" d="M772.13,490H671.06q1,14.06,12.84,22.66a45.08,45.08,0,0,0,27.15,8.6q24.24,0,36.84-15.27l15.51,17q-20.83,21.57-54.29,21.57-27.15,0-46.17-18.06t-19-48.47q0-30.42,19.39-48.36A65.11,65.11,0,0,1,709,411.69q26.29,0,44.72,15.87t18.42,43.75ZM671.06,468.65H745q0-16.25-10.19-25T709.72,435a42.91,42.91,0,0,0-26.78,9.09Q671.06,453.14,671.06,468.65Z"/><path class="cls-1" d="M545.51,93.87h0a14.4,14.4,0,0,1,10.24,4.23l50,50A14.42,14.42,0,0,0,628.57,145l41.06-73.25A14.43,14.43,0,0,0,657,50.23H434.38a14.43,14.43,0,0,0-14.44,14.44l0,91.8a14.51,14.51,0,0,0,4.23,10.2l70.91,70.91a14.43,14.43,0,0,1-10.17,24.64h0A14.42,14.42,0,0,1,474.69,258l-59.91-59.91a14.42,14.42,0,0,0-20.41,0L334.45,258a14.4,14.4,0,0,1-10.24,4.23h0A14.43,14.43,0,0,1,314,237.58l72.83-72.84a14.39,14.39,0,0,0,4.23-10.2l0-89.87a14.43,14.43,0,0,0-14.43-14.44H153.54A14.43,14.43,0,0,0,141,71.71l41.17,73.62a14.43,14.43,0,0,0,22.8,3.16L255.31,98.1a14.42,14.42,0,0,1,10.24-4.23h0a14.43,14.43,0,0,1,10.17,24.64L213.8,180.44a14.43,14.43,0,0,0-2.4,17.25l85.72,153.25a14.43,14.43,0,0,0,22.8,3.16l74.35-74.34a14.43,14.43,0,0,1,20.51.1l74.45,75.91a14.44,14.44,0,0,0,22.9-3l87.12-155.43A14.43,14.43,0,0,0,596.86,180l-61.52-61.52A14.43,14.43,0,0,1,545.51,93.87Z"/><text class="cls-2" transform="translate(182.28 619.44) scale(1.02 1)">We speak design</text></svg>