<svg id="Layer_1" data-name="Layer 1" xmlns="http://www.w3.org/2000/svg" xmlns:xlink="http://www.w3.org/1999/xlink" viewBox="0 0 811 670"><defs><style>.cls-1{fill:url(#linear-gradient);}.cls-2{font-size:53.83px;fill:gray;font-family:Montserrat-Regular, Montserrat;letter-spacing:-0.03em;}</style><linearGradient id="linear-gradient" x1="-660.25" y1="501.16" x2="-127.84" y2="501.16" gradientTransform="translate(800 -296)" gradientUnits="userSpaceOnUse"><stop offset="0.27" stop-color="#f15a29"/><stop offset="0.68" stop-color="#ef4136"/><stop offset="0.76" stop-color="#e83c35"/><stop offset="0.88" stop-color="#d62f31"/><stop offset="1" stop-color="#be1e2d"/></linearGradient></defs><path d="M114.74,542.57h-31L39.12,413.63H67.24l32,97.43,32-97.43h28.12l32,97.43,32-97.43h28.11L206.85,542.57h-31l-30.54-88.22Z"/><path d="M388.15,490H287.07q1,14.06,12.85,22.66a45.06,45.06,0,0,0,27.15,8.6q24.23,0,36.84-15.27l15.51,17q-20.85,21.57-54.29,21.57-27.15,0-46.18-18.06t-19-48.47q0-30.42,19.39-48.36A65.08,65.08,0,0,1,325,411.69q26.3,0,44.71,15.87t18.43,43.75ZM287.07,468.65H361q0-16.25-10.18-25T325.73,435A43,43,0,0,0,299,444.05Q287.07,453.14,287.07,468.65Z"/><path d="M406.57,437.38V414.11H507.4v24.48l-72.48,80.47h76.35v23.51H401.72V516.15l70.53-78.77Z"/><path d="M536.24,387.93A17,17,0,1,1,548.36,393,16.51,16.51,0,0,1,536.24,387.93Zm25.45,154.64H534.54V413.63h27.15Z"/><path d="M620.82,542.57H593.68V362.73h27.14Z"/><path d="M772.79,490H671.72q1,14.06,12.85,22.66a45,45,0,0,0,27.14,8.6q24.24,0,36.85-15.27l15.51,17q-20.85,21.57-54.3,21.57-27.13,0-46.17-18.06t-19-48.47q0-30.42,19.39-48.36a65.11,65.11,0,0,1,45.69-17.93q26.29,0,44.72,15.87t18.42,43.75ZM671.72,468.65h73.93q0-16.25-10.18-25T710.38,435a42.91,42.91,0,0,0-26.78,9.09Q671.72,453.14,671.72,468.65Z"/><path class="cls-1" d="M546.17,93.87h0a14.44,14.44,0,0,1,10.25,4.23l50,50a14.43,14.43,0,0,0,22.8-3.15L670.3,71.72a14.43,14.43,0,0,0-12.59-21.49H435A14.44,14.44,0,0,0,420.6,64.67l0,91.8a14.46,14.46,0,0,0,4.22,10.2l70.91,70.91a14.43,14.43,0,0,1-10.17,24.64h0A14.42,14.42,0,0,1,475.35,258l-59.91-59.91a14.42,14.42,0,0,0-20.41,0L335.11,258a14.4,14.4,0,0,1-10.24,4.23h0a14.43,14.43,0,0,1-10.17-24.64l72.84-72.84a14.43,14.43,0,0,0,4.22-10.2l0-89.87a14.43,14.43,0,0,0-14.44-14.44H154.21a14.43,14.43,0,0,0-12.6,21.48l41.17,73.62a14.43,14.43,0,0,0,22.8,3.16L256,98.1a14.4,14.4,0,0,1,10.24-4.23h0a14.43,14.43,0,0,1,10.17,24.64l-61.93,61.93a14.42,14.42,0,0,0-2.39,17.25l85.71,153.25a14.43,14.43,0,0,0,22.8,3.16l74.35-74.34a14.43,14.43,0,0,1,20.51.1l74.46,75.91a14.43,14.43,0,0,0,22.89-3l87.12-155.43A14.43,14.43,0,0,0,597.53,180L536,118.51A14.43,14.43,0,0,1,546.17,93.87Z"/><text class="cls-2" transform="translate(182.94 619.44) scale(1.02 1)">We speak design</text></svg>